<?xml version="1.0" standalone="no"?><!DOCTYPE svg PUBLIC "-//W3C//DTD SVG 1.1//EN" "http://www.w3.org/Graphics/SVG/1.1/DTD/svg11.dtd"><svg t="1679565296328" class="icon" viewBox="0 0 1024 1024" version="1.1" xmlns="http://www.w3.org/2000/svg" p-id="1778" xmlns:xlink="http://www.w3.org/1999/xlink" width="200" height="200"><path d="M231.896615 200.073846l2.756923 2.166154 310.468924 289.870769a19.692308 19.692308 0 0 1 2.599384 25.875693l-2.441846 2.796307-315.076923 300.859077a19.692308 19.692308 0 0 1-29.538462-25.836308l2.363077-2.678153 299.953231-286.444308-295.187692-275.692308a19.692308 19.692308 0 0 1-3.150769-25.009231l2.205538-2.796307a19.692308 19.692308 0 0 1 25.048615-3.150769z m275.692308 0l2.756923 2.166154 310.468923 289.870769a19.692308 19.692308 0 0 1 2.599385 25.875693l-2.441846 2.796307-315.076923 300.859077a19.692308 19.692308 0 0 1-29.538462-25.836308l2.363077-2.678153 299.953231-286.444308-295.187693-275.692308a19.692308 19.692308 0 0 1-3.150769-25.009231l2.205539-2.796307a19.692308 19.692308 0 0 1 25.048615-3.150769z" fill="#ffffff" p-id="1779"></path></svg>