<?xml version="1.0" standalone="no"?><!DOCTYPE svg PUBLIC "-//W3C//DTD SVG 1.1//EN" "http://www.w3.org/Graphics/SVG/1.1/DTD/svg11.dtd"><svg t="1677550724337" class="icon" viewBox="0 0 1024 1024" version="1.1" xmlns="http://www.w3.org/2000/svg" p-id="4025" xmlns:xlink="http://www.w3.org/1999/xlink" width="200" height="200"><path d="M628.1216 572.2112l-161.5872 161.536-68.9152-68.9664c-14.4896-14.4384-36.8128-15.36-49.8688-2.56s-11.9296 35.3792 2.56 49.8688l89.4464 89.4976c0.8192 0.768 1.792 1.0752 2.6112 1.792s0.3584 0.8192 0.7168 1.1776a29.5424 29.5424 0 0 0 19.1488 7.8848 33.7408 33.7408 0 0 0 4.5056 0.512 30.3616 30.3616 0 0 0 3.6864-0.512 32.5632 32.5632 0 0 0 10.752-2.9184c1.4336-0.6656 2.7136-1.792 4.096-2.6112a26.4192 26.4192 0 0 0 4.4032-2.7648s0-0.4096 0.3584-0.5632a45.312 45.312 0 0 0 4.5056-3.2256L675.4304 619.52c15.36-15.36 17.2032-38.4512 4.1984-51.5072s-36.1472-11.1616-51.5072 4.1984z" fill="#000000" p-id="4026"></path><path d="M799.8976 395.4176h-86.1184V291.5328a200.3456 200.3456 0 0 0-400.64 0v103.8848H227.072a105.1648 105.1648 0 0 0-105.0624 105.0624V849.92a105.1648 105.1648 0 0 0 105.0624 105.0624h572.8256A105.1648 105.1648 0 0 0 904.96 849.92V500.48a105.216 105.216 0 0 0-105.0624-105.0624z m-419.84-103.8848a133.4272 133.4272 0 1 1 266.8544 0v102.4H380.0576zM838.0416 849.92a38.1952 38.1952 0 0 1-38.144 38.1952H227.072a38.2464 38.2464 0 0 1-38.1952-38.1952V500.48a38.1952 38.1952 0 0 1 38.1952-38.144h572.8256a38.1952 38.1952 0 0 1 38.144 38.144z" fill="#000000" p-id="4027"></path></svg>