<?xml version="1.0" standalone="no"?><!DOCTYPE svg PUBLIC "-//W3C//DTD SVG 1.1//EN" "http://www.w3.org/Graphics/SVG/1.1/DTD/svg11.dtd"><svg t="1677550581278" class="icon" viewBox="0 0 1024 1024" version="1.1" xmlns="http://www.w3.org/2000/svg" p-id="3813" xmlns:xlink="http://www.w3.org/1999/xlink" width="200" height="200"><path d="M726.016 356.864h-3.072-0.512V283.648c0-60.416-21.504-116.224-59.904-156.672-38.912-40.448-92.16-62.976-150.016-62.976-118.784 0-208.384 94.208-208.384 219.648v73.216h-3.584c-62.976 0-114.688 52.736-114.688 117.248v292.352c0 65.024 51.2 117.248 114.688 117.248h425.472c62.976 0 114.688-52.736 114.688-117.248v-291.84c-0.512-65.024-51.712-117.76-114.688-117.76z m0 39.936c40.96 0 74.752 34.816 74.752 77.824v292.352c0 43.008-33.28 77.824-74.752 77.824H300.544c-40.96 0-74.752-34.816-74.752-77.824V474.624c0-43.008 33.28-77.824 74.752-77.824h43.52v-1.024h338.432v1.024h43.52z m-381.952-40.96V283.648c0-103.936 70.656-179.712 168.448-179.712 98.304 0 169.984 75.264 169.984 179.712v72.192H344.064z" p-id="3814"></path><path d="M659.968 500.224l-190.976 192L366.08 588.8c-8.192-8.192-21.504-8.192-29.696 0-8.192 8.192-8.192 21.504 0 29.696l117.248 118.272c8.192 8.192 21.504 8.192 29.696 0l205.824-206.848c8.192-8.192 8.192-21.504 0-29.696-7.68-8.192-20.992-8.192-29.184 0z" p-id="3815"></path></svg>