<?xml version="1.0" standalone="no"?><!DOCTYPE svg PUBLIC "-//W3C//DTD SVG 1.1//EN" "http://www.w3.org/Graphics/SVG/1.1/DTD/svg11.dtd"><svg t="1676719164885" class="icon" viewBox="0 0 1024 1024" version="1.1" xmlns="http://www.w3.org/2000/svg" p-id="2005" xmlns:xlink="http://www.w3.org/1999/xlink" width="200" height="200"><path d="M0 512C0 229.248 229.248 0 512 0s512 229.248 512 512-229.248 512-512 512S0 794.752 0 512z" fill="#CCE1FF" p-id="2006"></path><path d="M52.48 527.104l27.52-27.136-16.896-17.152v-27.392h-8.704v-12.544h8.704v-8.576h36.992v8.576h29.824c3.2 0 6.016 1.152 8.192 3.456 2.176 2.304 3.328 5.12 3.328 8.32v28.16l-17.92 16.896 24.192 27.392H106.624l-5.76-6.016-6.272 6.016H52.48z m168.832 18.688c2.304 2.304 3.456 5.12 3.456 8.32v57.728h-52.736v-13.44h9.728v-39.296c0-2.56-1.28-3.968-3.968-3.968H124.8l-17.92 56.576H62.336l18.432-56.576H55.68v-12.8h29.184l3.968-12.16h43.776l-3.712 12.16h84.352c3.072 0 5.76 1.152 8.064 3.456z m-118.016-68.992l3.712-3.584v-13.952c0-2.56-1.28-3.968-3.968-3.968h-2.816v17.92l3.072 3.584z m86.016-26.112h-42.496v-11.52h65.92c3.072 0 5.76 1.152 8.064 3.456 2.304 2.304 3.456 5.12 3.456 8.32v19.712l-17.28 24.96 23.808 31.488h-36.864l-4.864-6.016-4.096 6.016h-35.712v-5.376l18.56-26.496-20.48-25.088v-15.232h32.64v4.992l6.528 8.704 6.656-9.472v-4.48c0.128-2.56-1.152-3.968-3.84-3.968zM405.248 475.776c2.304 2.304 3.456 5.12 3.456 8.32v126.848h-56.448V597.76h9.472v-108.928c0-2.56-1.28-3.968-3.968-3.968H322.56l-26.752 126.08h-46.72l27.008-126.08h-30.848v-12.544h33.536l8.192-38.144h46.592l-8.192 38.144h71.808c3.072 0 5.76 1.152 8.064 3.456zM597.888 510.336v12.288h-19.712v88.576h-46.72v-88.576h-35.712l-4.864 88.576h-48.768l6.272-88.576h-20.992v-12.288h22.016l4.224-59.904h-22.528v-12.672h163.328v12.672h-16.256v59.904h19.712z m-66.56-59.904h-31.872l-3.328 59.904h35.2v-59.904zM733.696 611.2l-11.52-11.904-12.672 11.904h-59.392l44.16-40.96-21.248-21.76-18.56 51.2h-45.44l40.448-109.824h-38.4l13.952-55.808h37.76l-12.8 43.008h4.224l16-43.776h44.928l-16 43.776h83.456v12.8h-88.064l-4.224 11.776h71.296c3.072 0 5.76 1.152 8.064 3.456 2.304 2.304 3.456 4.992 3.456 8.064v38.528l-22.656 21.248 38.784 38.4h-55.552z m-12.032-66.56l6.912-6.272V518.4c0-2.56-1.28-3.968-3.968-3.968h-39.04l-2.048 5.632h31.872v18.176l6.272 6.4z m14.464-75.136l-6.912-33.664h41.088l7.04 33.664h-41.216zM960.896 473.984c3.072 0 5.76 1.152 8.064 3.456 2.304 2.304 3.456 5.12 3.456 8.32v67.584h-63.872v58.112H861.44v-58.112h-63.616v-79.36h63.616V432.64h47.104v41.344h52.352z m-116.608 66.688h17.152v-54.144h-17.152v54.144z m81.28 0v-50.304c0-2.56-1.28-3.968-3.968-3.968h-13.056v54.144h17.024z" fill="#FFFFFF" p-id="2007"></path></svg>