<?xml version="1.0" standalone="no"?><!DOCTYPE svg PUBLIC "-//W3C//DTD SVG 1.1//EN" "http://www.w3.org/Graphics/SVG/1.1/DTD/svg11.dtd"><svg t="1679564873833" class="icon" viewBox="0 0 1024 1024" version="1.1" xmlns="http://www.w3.org/2000/svg" p-id="2782" xmlns:xlink="http://www.w3.org/1999/xlink" width="200" height="200"><path d="M864 960H160c-52.93 0-96-43.07-96-96V160c0-52.93 43.07-96 96-96h704c52.93 0 96 43.07 96 96v704c0 52.93-43.07 96-96 96zM160 128c-17.65 0-32 14.35-32 32v704c0 17.64 14.35 32 32 32h704c17.64 0 32-14.36 32-32V160c0-17.65-14.36-32-32-32H160z" fill="#ffffff" p-id="2783"></path><path d="M800 832H224c-17.67 0-32-14.33-32-32s14.33-32 32-32h576c17.67 0 32 14.33 32 32s-14.33 32-32 32zM800 704H224c-17.67 0-32-14.33-32-32s14.33-32 32-32h576c17.67 0 32 14.33 32 32s-14.33 32-32 32z" fill="#ffffff" p-id="2784"></path></svg>