<?xml version="1.0" standalone="no"?><!DOCTYPE svg PUBLIC "-//W3C//DTD SVG 1.1//EN" "http://www.w3.org/Graphics/SVG/1.1/DTD/svg11.dtd"><svg t="1679646454973" class="icon" viewBox="0 0 1024 1024" version="1.1" xmlns="http://www.w3.org/2000/svg" p-id="3894" xmlns:xlink="http://www.w3.org/1999/xlink" width="200" height="200"><path d="M798.72 354.986667l-259.413333-310.613334c-13.653333-17.066667-40.96-17.066667-51.2 0l-259.413334 310.613334c-119.466667 143.36-119.466667 354.986667 0 498.346666 68.266667 88.746667 174.08 136.533333 283.306667 136.533334 109.226667 0 215.04-47.786667 286.72-133.12 119.466667-146.773333 119.466667-354.986667 0-501.76z m-54.613333 457.386666c-58.026667 68.266667-143.36 109.226667-232.106667 109.226667s-174.08-40.96-232.106667-109.226667c-98.986667-119.466667-98.986667-293.546667 0-413.013333L512 122.88l232.106667 279.893333c102.4 116.053333 102.4 290.133333 0 409.6z m-259.413334-276.48c0-71.68-27.306667-92.16-71.68-92.16s-71.68 20.48-71.68 92.16 27.306667 92.16 71.68 92.16c44.373333-3.413333 71.68-20.48 71.68-92.16z m-98.986666 0c0-44.373333 6.826667-54.613333 27.306666-54.613333 20.48 0 27.306667 10.24 27.306667 54.613333s-6.826667 54.613333-27.306667 54.613334c-20.48 0-27.306667-10.24-27.306666-54.613334z m197.973333-88.746666l-187.733333 331.093333h44.373333l187.733333-331.093333h-44.373333z m27.306667 157.013333c-44.373333 0-71.68 20.48-71.68 92.16s27.306667 92.16 71.68 92.16 71.68-20.48 71.68-92.16-27.306667-92.16-71.68-92.16z m0 146.773333c-20.48 0-27.306667-10.24-27.306667-54.613333s6.826667-54.613333 27.306667-54.613333c20.48 0 27.306667 10.24 27.306666 54.613333 0 40.96-6.826667 54.613333-27.306666 54.613333z" p-id="3895"></path></svg>