<?xml version="1.0" encoding="UTF-8" ?>
<!DOCTYPE svg PUBLIC "-//W3C//DTD SVG 1.1//EN" "http://www.w3.org/Graphics/SVG/1.1/DTD/svg11.dtd">
<svg width="978pt" height="960pt" viewBox="0 0 978 960" version="1.1" xmlns="http://www.w3.org/2000/svg">
<g id="#8540d9ff">
<path fill="#8540d9" opacity="1.00" d=" M 351.76 134.86 C 395.17 91.49 438.44 47.96 481.93 4.68 C 482.08 63.40 481.97 122.11 481.99 180.83 C 387.67 275.22 293.34 369.60 199.01 463.98 C 193.73 468.97 188.95 474.63 183.35 479.20 C 282.56 578.70 382.48 677.84 481.99 777.18 C 481.97 835.90 482.08 894.62 481.94 953.34 C 329.25 801.28 176.93 648.82 24.42 496.57 C 18.59 490.90 13.06 484.91 7.04 479.45 C 18.63 468.63 29.55 457.04 40.89 445.92 C 144.52 342.24 248.14 238.55 351.76 134.86 Z" />
<path fill="#8540d9" opacity="1.00" d=" M 496.73 5.02 C 501.84 9.10 506.25 14.36 511.08 18.92 C 663.66 171.71 816.32 324.41 968.79 477.30 C 969.43 478.14 970.59 478.64 970.98 479.68 C 937.22 513.03 903.81 546.74 870.18 580.22 C 748.99 701.33 627.80 822.44 506.62 943.56 C 503.27 946.58 500.37 950.48 496.71 952.90 C 496.81 905.60 496.73 858.30 496.75 810.99 C 496.89 799.69 496.48 788.25 496.96 777.03 C 596.27 677.84 695.53 578.50 794.86 479.38 C 788.01 473.20 781.75 466.34 775.14 459.90 C 689.94 374.43 604.79 288.90 519.49 203.53 C 511.95 195.75 503.91 188.35 496.67 180.34 C 496.85 121.91 496.72 63.46 496.73 5.02 Z" />
<path fill="#8540d9" opacity="1.00" d=" M 491.30 206.50 C 506.41 221.57 521.66 236.83 536.80 252.00 C 466.59 322.14 396.40 392.29 326.10 462.33 L 326.12 463.07 C 345.69 482.76 365.37 502.36 385.00 521.99 C 426.02 481.01 466.99 439.99 508.00 399.02 C 522.99 413.99 537.98 428.95 552.93 443.96 L 552.85 444.69 C 512.27 485.77 471.47 526.64 431.00 567.83 C 452.92 589.83 474.89 611.78 496.78 633.82 C 567.50 562.80 638.61 492.14 709.29 421.08 C 726.19 437.01 742.43 454.24 759.39 470.29 L 759.38 470.80 C 667.84 562.34 576.29 653.87 484.77 745.43 C 464.87 725.89 445.00 705.71 425.11 685.93 C 369.43 630.25 313.75 574.57 258.07 518.89 C 244.79 505.74 231.76 492.31 218.31 479.34 C 219.76 478.88 220.52 477.52 221.60 476.58 C 303.27 394.91 384.93 313.25 466.60 231.58 C 474.76 223.17 483.49 215.20 491.30 206.50 Z" />
</g>
</svg>
