<?xml version="1.0" encoding="UTF-8" ?>
<!DOCTYPE svg PUBLIC "-//W3C//DTD SVG 1.1//EN" "http://www.w3.org/Graphics/SVG/1.1/DTD/svg11.dtd">
<svg width="512pt" height="512pt" viewBox="0 0 512 512" version="1.1" xmlns="http://www.w3.org/2000/svg">
<g id="#ffffffff">
<path fill="#ffffff" opacity="1.00" d=" M 260.67 34.22 C 262.24 36.58 264.38 38.46 266.39 40.44 C 316.40 90.48 366.41 140.53 416.42 190.58 C 439.47 213.82 462.80 236.80 485.71 260.17 C 485.66 260.50 485.58 261.16 485.53 261.49 C 417.23 329.86 348.83 398.14 280.52 466.51 C 274.00 473.37 266.74 479.57 260.63 486.79 C 260.70 459.01 260.52 431.22 260.71 403.44 C 307.98 355.79 355.61 308.47 403.05 260.99 C 396.59 254.10 390.25 247.10 383.20 240.81 C 367.26 224.09 350.73 207.94 334.45 191.55 C 309.93 166.83 285.09 142.41 260.72 117.56 C 260.55 89.79 260.64 62.00 260.67 34.22 Z" />
<path fill="#ffffff" opacity="1.00" d=" M 249.49 38.48 C 250.61 37.34 251.70 36.17 252.71 34.92 C 252.61 62.81 252.72 90.70 252.66 118.58 C 238.01 132.60 223.94 147.25 209.48 161.48 C 176.42 194.66 143.20 227.69 110.18 260.90 C 129.53 279.51 148.21 298.81 167.37 317.63 C 194.53 344.80 221.81 371.86 248.95 399.06 C 250.09 400.28 251.36 401.37 252.66 402.42 C 252.72 430.31 252.61 458.21 252.71 486.11 C 245.70 478.20 237.71 471.22 230.45 463.54 C 209.42 442.57 188.42 421.57 167.39 400.60 C 136.65 369.68 105.41 339.26 74.72 308.28 C 58.74 292.59 43.16 276.48 27.05 260.94 C 101.20 186.80 175.33 112.61 249.49 38.48 Z" />
<path fill="#ffffff" opacity="1.00" d=" M 127.96 260.94 C 171.36 217.67 214.70 174.30 257.99 130.92 C 264.87 138.12 272.01 145.05 279.10 152.04 C 245.34 185.54 211.81 219.29 178.11 252.86 C 186.34 261.64 195.50 269.50 203.57 278.43 C 204.70 279.43 205.87 280.39 207.00 281.42 C 216.48 272.79 225.37 263.50 234.38 254.38 C 244.86 244.23 255.04 233.76 265.32 223.41 C 266.78 223.19 267.50 224.72 268.49 225.51 C 274.67 231.64 280.80 237.84 286.97 243.99 C 271.64 259.31 256.37 274.71 241.03 290.02 C 236.91 294.37 232.51 298.43 228.66 303.02 C 238.52 312.63 247.78 322.84 257.71 332.38 C 258.95 333.94 261.39 334.58 262.69 332.71 C 295.66 299.36 329.14 266.52 362.01 233.08 C 369.78 241.06 377.65 248.98 385.73 256.62 C 376.06 265.29 367.35 274.98 357.98 283.98 C 336.82 305.16 315.65 326.32 294.48 347.49 C 281.25 360.90 267.65 373.96 254.65 387.59 C 244.39 376.78 233.52 366.55 223.15 355.85 C 199.58 332.41 176.14 308.86 152.63 285.37 C 144.28 277.35 136.48 268.77 127.96 260.94 Z" />
</g>
</svg>
