<?xml version="1.0" encoding="UTF-8" ?>
<!DOCTYPE svg PUBLIC "-//W3C//DTD SVG 1.1//EN" "http://www.w3.org/Graphics/SVG/1.1/DTD/svg11.dtd">
<svg width="500pt" height="500pt" viewBox="0 0 500 500" version="1.1" xmlns="http://www.w3.org/2000/svg">
<g id="#ffffffff">
</g>
<g id="#9729e7ff">
<path fill="#9729e7" opacity="1.00" d=" M 233.77 114.79 C 235.16 112.13 237.84 109.79 241.01 109.99 C 251.36 110.01 261.71 109.98 272.06 110.01 C 274.93 109.87 277.35 111.92 278.72 114.28 C 284.05 123.51 289.36 132.76 294.67 142.00 C 293.05 144.42 290.79 146.21 287.84 146.61 C 282.34 137.06 276.87 127.48 271.32 117.96 C 262.07 118.05 252.82 117.97 243.58 118.00 C 249.42 128.23 255.31 138.43 261.18 148.65 C 260.71 149.46 260.26 150.28 259.81 151.10 C 259.34 151.02 258.87 150.94 258.40 150.86 C 258.20 151.20 257.78 151.89 257.57 152.23 C 256.90 151.97 256.23 151.72 255.57 151.46 C 256.38 152.92 257.29 154.33 258.27 155.68 C 257.66 156.27 257.06 156.87 256.46 157.47 C 250.17 146.61 243.93 135.73 237.64 124.87 C 225.67 145.33 213.69 165.80 201.69 186.25 C 200.87 186.29 199.22 186.36 198.39 186.39 C 197.58 187.52 196.84 188.73 195.84 189.70 C 194.00 189.73 192.19 189.30 190.40 188.95 C 204.84 164.22 219.33 139.51 233.77 114.79 Z" />
</g>
<g id="#8b38deff">
<path fill="#8b38de" opacity="1.00" d=" M 294.67 142.00 C 303.28 156.86 311.82 171.76 320.40 186.63 C 318.60 188.81 316.53 190.76 313.97 192.00 C 305.28 176.85 296.53 161.75 287.84 146.61 C 290.79 146.21 293.05 144.42 294.67 142.00 Z" />
</g>
<g id="#8f33e1ff">
<path fill="#8f33e1" opacity="1.00" d=" M 259.81 151.10 C 260.26 150.28 260.71 149.46 261.18 148.65 C 266.36 157.63 271.55 166.62 276.70 175.62 C 273.82 178.63 274.11 182.65 273.16 186.36 C 267.55 176.75 262.01 167.11 256.46 157.47 C 257.06 156.87 257.66 156.27 258.27 155.68 C 257.29 154.33 256.38 152.92 255.57 151.46 C 256.23 151.72 256.90 151.97 257.57 152.23 C 257.78 151.89 258.20 151.20 258.40 150.86 C 258.87 150.94 259.34 151.02 259.81 151.10 Z" />
<path fill="#8f33e1" opacity="1.00" d=" M 198.39 186.39 C 199.22 186.36 200.87 186.29 201.69 186.25 C 188.91 208.18 176.06 230.08 163.23 251.98 C 162.65 251.60 162.06 251.23 161.48 250.86 C 159.16 251.72 156.77 251.32 154.55 250.40 C 166.32 229.81 178.46 209.43 190.40 188.95 C 192.19 189.30 194.00 189.73 195.84 189.70 C 196.84 188.73 197.58 187.52 198.39 186.39 Z" />
</g>
<g id="#8d35e0ff">
<path fill="#8d35e0" opacity="1.00" d=" M 232.28 175.29 C 233.58 172.84 237.51 172.53 239.09 174.82 C 244.27 184.36 249.86 193.68 255.24 203.10 C 254.44 203.88 253.65 204.67 252.86 205.46 C 253.59 207.86 251.55 209.42 249.87 210.68 C 249.24 210.56 247.99 210.32 247.36 210.21 C 247.64 209.70 248.21 208.69 248.50 208.19 C 244.41 200.85 240.13 193.61 235.91 186.34 C 227.82 200.78 220.07 215.42 212.13 229.94 C 209.51 231.13 206.97 232.47 204.47 233.88 C 203.80 232.73 203.12 231.57 202.46 230.42 C 212.40 212.04 222.43 193.71 232.28 175.29 Z" />
</g>
<g id="#893bdcff">
<path fill="#893bdc" opacity="1.00" d=" M 276.70 175.62 C 281.95 184.68 287.16 193.75 292.37 202.83 C 290.39 205.01 288.39 207.16 286.36 209.30 C 281.96 201.65 277.50 194.04 273.16 186.36 C 274.11 182.65 273.82 178.63 276.70 175.62 Z" />
</g>
<g id="#8244d7ff">
<path fill="#8244d7" opacity="1.00" d=" M 320.40 186.63 C 327.82 199.50 335.22 212.39 342.66 225.24 C 341.40 227.98 338.47 228.97 335.94 230.16 C 328.61 217.44 321.29 204.72 313.97 192.00 C 316.53 190.76 318.60 188.81 320.40 186.63 Z" />
<path fill="#8244d7" opacity="1.00" d=" M 126.55 309.30 C 127.08 310.17 127.61 311.05 128.14 311.94 C 121.06 324.20 113.70 336.31 106.77 348.66 C 109.11 352.63 111.18 356.74 113.42 360.77 C 111.58 360.99 109.74 361.23 107.90 361.48 C 107.28 362.47 106.67 363.46 106.05 364.46 C 103.90 360.42 101.61 356.46 99.47 352.42 C 97.96 349.76 98.16 346.36 99.76 343.80 C 105.58 333.88 111.36 323.94 117.20 314.03 C 118.65 314.87 120.11 315.69 121.56 316.53 C 123.22 314.11 124.88 311.70 126.55 309.30 Z" />
</g>
<g id="#8343d8ff">
<path fill="#8343d8" opacity="1.00" d=" M 292.37 202.83 C 298.10 212.74 303.79 222.68 309.52 232.60 C 309.56 234.44 309.50 236.29 309.38 238.14 C 307.38 237.91 305.41 238.36 303.58 239.16 C 297.83 229.21 292.09 219.26 286.36 209.30 C 288.39 207.16 290.39 205.01 292.37 202.83 Z" />
</g>
<g id="#8540d9ff">
<path fill="#8540d9" opacity="1.00" d=" M 252.86 205.46 C 253.65 204.67 254.44 203.88 255.24 203.10 C 263.68 217.69 272.06 232.30 280.49 246.89 C 274.88 248.48 270.38 252.21 265.48 255.14 C 255.62 258.73 246.95 264.87 238.85 271.40 C 237.75 271.52 236.64 271.57 235.54 271.57 C 232.09 265.37 228.66 259.18 225.19 252.99 C 217.81 253.01 210.43 252.99 203.04 253.01 C 205.44 257.13 207.82 261.27 210.16 265.44 C 209.10 267.10 208.72 268.98 209.21 270.90 C 208.90 271.10 208.29 271.51 207.98 271.71 C 207.34 270.96 206.71 270.21 206.08 269.47 C 205.30 270.00 204.53 270.54 203.76 271.07 C 200.26 264.91 196.69 258.78 193.22 252.61 C 192.07 251.02 192.33 248.94 193.31 247.35 C 196.31 241.68 199.44 236.08 202.46 230.42 C 203.12 231.57 203.80 232.73 204.47 233.88 C 206.97 232.47 209.51 231.13 212.13 229.94 C 209.42 234.96 206.69 239.96 203.98 244.97 C 211.54 244.97 219.10 245.11 226.66 244.90 C 233.49 233.30 240.40 221.74 247.36 210.21 C 247.99 210.32 249.24 210.56 249.87 210.68 C 251.55 209.42 253.59 207.86 252.86 205.46 Z" />
</g>
<g id="#7a4ed1ff">
<path fill="#7a4ed1" opacity="1.00" d=" M 342.66 225.24 C 348.41 235.39 354.36 245.41 360.05 255.59 C 359.67 257.87 359.56 260.18 359.64 262.49 C 357.86 262.26 356.07 262.09 354.28 262.00 C 348.14 251.39 342.05 240.77 335.94 230.16 C 338.47 228.97 341.40 227.98 342.66 225.24 Z" />
</g>
<g id="#7c4cd3ff">
<path fill="#7c4cd3" opacity="1.00" d=" M 309.52 232.60 C 315.51 243.02 321.50 253.44 327.51 263.85 C 326.53 265.23 325.53 266.60 324.55 267.99 C 323.81 267.25 323.07 266.51 322.33 265.78 C 321.49 266.29 320.65 266.80 319.82 267.32 C 314.41 257.93 308.97 248.56 303.58 239.16 C 305.41 238.36 307.38 237.91 309.38 238.14 C 309.50 236.29 309.56 234.44 309.52 232.60 Z" />
</g>
<g id="#7d4bd3ff">
<path fill="#7d4bd3" opacity="1.00" d=" M 280.49 246.89 C 285.41 255.37 290.28 263.88 295.20 272.37 C 294.89 273.42 294.60 274.48 294.30 275.53 C 292.11 275.72 289.92 275.94 287.74 276.20 C 285.04 271.51 282.34 266.83 279.62 262.17 C 267.71 281.11 255.75 300.02 243.88 318.99 C 242.67 320.69 241.62 323.41 239.04 322.98 C 223.14 323.10 207.23 322.83 191.33 323.11 C 187.14 330.16 182.60 337.00 178.33 343.99 C 180.95 344.00 183.58 344.02 186.20 344.01 C 183.06 345.78 180.17 347.97 177.14 349.91 C 176.45 349.04 175.77 348.18 175.09 347.33 C 174.00 348.89 172.92 350.46 171.85 352.03 C 168.18 353.03 165.14 348.63 167.53 345.62 C 173.71 335.60 180.03 325.67 186.28 315.70 C 186.93 315.92 188.24 316.35 188.90 316.56 C 189.63 314.92 190.14 313.13 191.23 311.68 C 192.36 310.48 194.03 311.20 195.35 311.54 C 195.41 310.49 195.47 309.45 195.53 308.42 C 196.82 308.26 198.12 308.13 199.42 307.99 C 200.76 310.27 202.08 312.56 203.34 314.89 C 211.86 315.14 220.38 314.94 228.90 315.00 C 225.16 308.46 221.43 301.92 217.69 295.40 C 218.77 295.82 219.86 296.26 220.95 296.68 C 222.62 295.48 224.40 294.44 226.33 293.71 C 230.07 300.22 233.76 306.76 237.52 313.26 C 241.35 307.36 245.04 301.37 248.79 295.43 C 244.39 287.46 239.96 279.52 235.54 271.57 C 236.64 271.57 237.75 271.52 238.85 271.40 C 246.95 264.87 255.62 258.73 265.48 255.14 C 270.38 252.21 274.88 248.48 280.49 246.89 Z" />
</g>
<g id="#883cdcff">
<path fill="#883cdc" opacity="1.00" d=" M 154.40 250.35 L 154.55 250.40 C 156.77 251.32 159.16 251.72 161.48 250.86 C 162.06 251.23 162.65 251.60 163.23 251.98 C 151.56 271.98 139.83 291.95 128.14 311.94 C 127.61 311.05 127.08 310.17 126.55 309.30 C 124.88 311.70 123.22 314.11 121.56 316.53 C 120.11 315.69 118.65 314.87 117.20 314.03 C 129.57 292.79 142.08 271.62 154.40 250.35 Z" />
</g>
<g id="#7358ccff">
<path fill="#7358cc" opacity="1.00" d=" M 360.05 255.59 C 366.58 266.64 372.89 277.82 379.32 288.93 C 377.57 291.17 375.12 292.63 372.66 293.97 C 366.54 283.31 360.39 272.66 354.28 262.00 C 356.07 262.09 357.86 262.26 359.64 262.49 C 359.56 260.18 359.67 257.87 360.05 255.59 Z" />
</g>
<g id="#7654ceff">
<path fill="#7654ce" opacity="1.00" d=" M 327.51 263.85 C 332.40 272.35 337.29 280.85 342.18 289.35 C 341.71 291.34 341.22 293.31 340.72 295.29 C 339.19 295.12 337.34 294.19 336.27 295.83 C 330.80 286.32 325.28 276.84 319.82 267.32 C 320.65 266.80 321.49 266.29 322.33 265.78 C 323.07 266.51 323.81 267.25 324.55 267.99 C 325.53 266.60 326.53 265.23 327.51 263.85 Z" />
</g>
<g id="#8046d6ff">
<path fill="#8046d6" opacity="1.00" d=" M 210.16 265.44 C 215.58 274.84 220.94 284.28 226.33 293.71 C 224.40 294.44 222.62 295.48 220.95 296.68 C 219.86 296.26 218.77 295.82 217.69 295.40 C 213.06 287.28 208.37 279.20 203.76 271.07 C 204.53 270.54 205.30 270.00 206.08 269.47 C 206.71 270.21 207.34 270.96 207.98 271.71 C 208.29 271.51 208.90 271.10 209.21 270.90 C 208.72 268.98 209.10 267.10 210.16 265.44 Z" />
</g>
<g id="#8245d7ff">
<path fill="#8245d7" opacity="1.00" d=" M 173.93 274.85 C 175.55 272.80 179.47 272.76 180.70 275.31 C 186.74 286.31 193.19 297.09 199.42 307.99 C 198.12 308.13 196.82 308.26 195.53 308.42 C 195.47 309.45 195.41 310.49 195.35 311.54 C 194.03 311.20 192.36 310.48 191.23 311.68 C 190.14 313.13 189.63 314.92 188.90 316.56 C 188.24 316.35 186.93 315.92 186.28 315.70 C 187.67 313.50 189.04 311.28 190.42 309.06 C 186.09 301.27 181.58 293.58 177.13 285.87 C 165.48 306.20 153.87 326.55 142.25 346.90 C 139.00 346.74 135.77 347.14 132.58 347.74 C 146.34 323.43 160.24 299.19 173.93 274.85 Z" />
</g>
<g id="#7654cdff">
<path fill="#7654cd" opacity="1.00" d=" M 294.30 275.53 C 294.60 274.48 294.89 273.42 295.20 272.37 C 301.22 282.79 307.21 293.22 313.23 303.64 C 311.27 305.63 309.87 308.88 306.65 308.95 C 303.20 303.16 299.93 297.25 296.48 291.46 C 284.21 310.88 272.00 330.34 259.76 349.78 C 258.98 351.11 257.74 352.26 256.08 351.97 C 228.00 352.05 199.92 351.95 171.85 352.03 C 172.92 350.46 174.00 348.89 175.09 347.33 C 175.77 348.18 176.45 349.04 177.14 349.91 C 180.17 347.97 183.06 345.78 186.20 344.01 C 208.68 343.92 231.16 344.13 253.63 343.91 C 266.23 323.60 279.08 303.44 291.76 283.18 C 290.43 280.84 289.09 278.52 287.74 276.20 C 289.92 275.94 292.11 275.72 294.30 275.53 Z" />
</g>
<g id="#6c61c7ff">
<path fill="#6c61c7" opacity="1.00" d=" M 372.66 293.97 C 375.12 292.63 377.57 291.17 379.32 288.93 C 385.08 298.92 390.85 308.91 396.58 318.92 C 393.77 320.30 392.05 322.85 390.95 325.70 C 390.68 325.29 390.16 324.46 389.90 324.05 C 372.13 323.92 354.35 324.04 336.58 324.00 C 336.61 323.60 336.67 322.82 336.70 322.42 C 339.85 321.77 342.84 320.41 344.50 317.52 C 346.20 319.28 348.37 320.25 350.84 320.23 C 349.84 319.38 348.83 318.54 347.83 317.71 C 348.53 317.13 349.23 316.56 349.93 315.99 C 350.94 316.45 351.95 316.93 352.96 317.41 C 353.31 316.41 353.65 315.42 354.00 314.44 C 355.02 314.76 356.00 315.13 357.03 315.44 C 358.33 315.86 359.68 316.07 361.05 316.03 C 369.15 315.97 377.25 316.03 385.35 315.97 C 381.10 308.65 376.90 301.30 372.66 293.97 Z" />
</g>
<g id="#705bcaff">
<path fill="#705bca" opacity="1.00" d=" M 340.72 295.29 C 341.22 293.31 341.71 291.34 342.18 289.35 C 347.11 298.06 352.32 306.61 357.03 315.44 C 356.00 315.13 355.02 314.76 354.00 314.44 C 353.65 315.42 353.31 316.41 352.96 317.41 C 351.95 316.93 350.94 316.45 349.93 315.99 C 349.23 316.56 348.53 317.13 347.83 317.71 C 348.83 318.54 349.84 319.38 350.84 320.23 C 348.37 320.25 346.20 319.28 344.50 317.52 C 342.84 320.41 339.85 321.77 336.70 322.42 C 336.67 322.82 336.61 323.60 336.58 324.00 C 327.73 324.00 318.88 323.99 310.03 324.01 C 305.77 330.62 301.62 337.31 297.46 343.99 C 301.09 344.01 304.73 344.01 308.36 344.00 C 308.13 344.61 307.67 345.83 307.44 346.44 C 302.87 346.67 299.74 350.08 295.89 352.01 C 293.30 352.03 290.69 352.16 288.13 351.79 C 285.79 350.75 285.12 347.55 286.66 345.56 C 293.58 334.48 300.63 323.47 307.49 312.35 C 308.39 311.19 307.06 310.01 306.65 308.95 C 309.87 308.88 311.27 305.63 313.23 303.64 C 315.61 307.73 317.97 311.82 320.30 315.94 C 329.49 316.07 338.70 315.98 347.90 315.99 C 344.03 309.27 340.13 302.56 336.27 295.83 C 337.34 294.19 339.19 295.12 340.72 295.29 Z" />
</g>
<g id="#6569c2ff">
<path fill="#6569c2" opacity="1.00" d=" M 396.58 318.92 C 401.84 328.09 407.22 337.20 412.36 346.43 C 411.19 346.11 410.03 345.78 408.87 345.46 C 407.77 348.52 404.48 349.74 402.40 352.00 C 384.44 351.97 366.48 352.04 348.52 351.96 C 353.22 349.47 358.07 347.21 362.34 344.01 C 375.40 344.00 388.45 344.00 401.51 344.00 C 397.96 337.92 394.47 331.79 390.95 325.70 C 392.05 322.85 393.77 320.30 396.58 318.92 Z" />
</g>
<g id="#6a62c6ff">
<path fill="#6a62c6" opacity="1.00" d=" M 308.36 344.00 C 326.35 344.01 344.35 343.99 362.34 344.01 C 358.07 347.21 353.22 349.47 348.52 351.96 C 330.98 352.06 313.43 351.95 295.89 352.01 C 299.74 350.08 302.87 346.67 307.44 346.44 C 307.67 345.83 308.13 344.61 308.36 344.00 Z" />
</g>
<g id="#626ebfff">
<path fill="#626ebf" opacity="1.00" d=" M 408.87 345.46 C 410.03 345.78 411.19 346.11 412.36 346.43 C 413.12 349.03 412.62 351.82 411.01 354.00 C 405.24 362.87 399.40 371.70 393.61 380.55 C 392.25 382.81 389.73 384.19 387.08 384.01 C 362.85 383.96 338.62 384.06 314.39 383.96 C 316.26 379.77 321.18 378.84 324.40 376.02 C 345.02 376.00 365.64 375.98 386.27 376.03 C 391.74 368.09 397.07 360.04 402.40 352.00 C 404.48 349.74 407.77 348.52 408.87 345.46 Z" />
</g>
<g id="#7b4dd2ff">
<path fill="#7b4dd2" opacity="1.00" d=" M 132.58 347.74 C 135.77 347.14 139.00 346.74 142.25 346.90 C 136.75 356.61 131.18 366.28 125.66 375.97 C 133.54 376.04 141.41 375.99 149.29 376.01 C 146.46 378.73 143.47 381.30 140.60 383.98 C 134.06 383.99 127.51 384.02 120.97 383.99 C 118.09 384.13 115.61 382.11 114.37 379.65 C 111.60 374.59 108.85 369.51 106.05 364.46 C 106.67 363.46 107.28 362.47 107.90 361.48 C 109.74 361.23 111.58 360.99 113.42 360.77 C 115.33 364.28 117.21 367.82 119.15 371.32 C 123.66 363.48 128.08 355.58 132.58 347.74 Z" />
</g>
<g id="#7457cdff">
<path fill="#7457cd" opacity="1.00" d=" M 149.29 376.01 C 170.66 376.01 192.02 375.98 213.38 376.02 C 210.11 379.30 204.66 379.64 202.39 383.96 C 181.79 384.03 161.20 384.00 140.60 383.98 C 143.47 381.30 146.46 378.73 149.29 376.01 Z" />
</g>
<g id="#6f5ec8ff">
<path fill="#6f5ec8" opacity="1.00" d=" M 213.38 376.02 C 233.99 375.98 254.60 376.00 275.20 376.01 C 270.40 378.19 266.06 381.22 261.55 383.92 C 241.84 384.08 222.11 384.00 202.39 383.96 C 204.66 379.64 210.11 379.30 213.38 376.02 Z" />
</g>
<g id="#6965c4ff">
<path fill="#6965c4" opacity="1.00" d=" M 275.20 376.01 C 291.60 375.99 308.00 375.99 324.40 376.02 C 321.18 378.84 316.26 379.77 314.39 383.96 C 296.78 384.00 279.16 384.08 261.55 383.92 C 266.06 381.22 270.40 378.19 275.20 376.01 Z" />
</g>
</svg>
