<?xml version="1.0" standalone="no"?><!DOCTYPE svg PUBLIC "-//W3C//DTD SVG 1.1//EN" "http://www.w3.org/Graphics/SVG/1.1/DTD/svg11.dtd"><svg t="1676620121359" class="icon" viewBox="0 0 1024 1024" version="1.1" xmlns="http://www.w3.org/2000/svg" p-id="20920" xmlns:xlink="http://www.w3.org/1999/xlink" width="200" height="200"><path d="M896 853.333333H128a85.333333 85.333333 0 0 1-85.333333-85.333333V256a84.8 84.8 0 0 1 14.058666-46.741333l398.933334 388.48A77.226667 77.226667 0 0 0 512 618.666667a86.122667 86.122667 0 0 0 56.597333-20.757334L967.424 209.514667A84.821333 84.821333 0 0 1 981.333333 256v512a85.333333 85.333333 0 0 1-85.333333 85.333333zM512 546.666667a84.821333 84.821333 0 0 1-61.866667-26.986667L111.189333 170.24h802.389334L573.866667 520.298667a95.445333 95.445333 0 0 1-61.866667 26.368z" fill="#FCBD3F" p-id="20921"></path></svg>