<?xml version="1.0" standalone="no"?><!DOCTYPE svg PUBLIC "-//W3C//DTD SVG 1.1//EN" "http://www.w3.org/Graphics/SVG/1.1/DTD/svg11.dtd"><svg t="1677550297358" class="icon" viewBox="0 0 1024 1024" version="1.1" xmlns="http://www.w3.org/2000/svg" p-id="2792" xmlns:xlink="http://www.w3.org/1999/xlink" width="200" height="200"><path d="M751.616 38.912H309.248C251.904 38.912 204.8 86.016 204.8 143.36v714.752C204.8 915.456 251.904 962.56 309.248 962.56h443.392c57.344 0 104.448-47.104 104.448-104.448V143.36C856.064 86.016 808.96 38.912 751.616 38.912zM309.248 97.28h443.392c25.6 0 46.08 20.48 46.08 46.08v584.704H263.168V143.36c0-25.6 20.48-46.08 46.08-46.08z m442.368 806.912H309.248c-25.6 0-46.08-20.48-46.08-46.08v-71.68H798.72v71.68c-1.024 25.6-21.504 46.08-47.104 46.08z" fill="#000000" p-id="2793"></path><path d="M470.016 223.232h121.856c16.384 0 28.672-13.312 28.672-28.672s-13.312-28.672-28.672-28.672H470.016c-16.384 0-28.672 13.312-28.672 28.672s12.288 28.672 28.672 28.672z" fill="#000000" p-id="2794"></path></svg>