<?xml version="1.0" standalone="no"?><!DOCTYPE svg PUBLIC "-//W3C//DTD SVG 1.1//EN"
        "http://www.w3.org/Graphics/SVG/1.1/DTD/svg11.dtd">
<svg t="1679646814687" class="icon" viewBox="0 0 1024 1024" version="1.1" xmlns="http://www.w3.org/2000/svg"
     p-id="10756" xmlns:xlink="http://www.w3.org/1999/xlink" width="200" height="200">
    <path d="M511.05216365 1016.09095932c-162.58026082 0-294.85608758-132.27582678-294.8560876-294.85608761 0-92.65100208 44.41666396-181.01041183 118.82181654-236.40618008 15.87625868-11.82162545 38.41370053-8.55685585 50.28798352 7.37206039 11.84795422 15.92891623 8.55685585 38.44002926-7.37206044 50.28798353-56.26461818 41.88910041-89.86015061 108.71156226-89.86015064 178.71980737 0 122.92910734 100.02306249 222.95216981 222.95216984 222.95216979 122.92910734 0 222.95216981-100.02306249 222.95216984-222.95216979 0-70.13988901-33.67451879-136.93602208-90.04445218-178.66714979-15.95524502-11.82162545-19.32532979-34.33273846-7.50370434-50.28798352 11.82162545-15.9815738 34.35906727-19.299001 50.2879835-7.50370434 74.64211166 55.23779551 119.19041953 143.62353406 119.19041954 236.45883765 0 162.6065896-132.24949801 294.88241639-294.85608758 294.8824164z"
          fill="#000" p-id="10757"></path>
    <path d="M665.33885655 549.62383687c-19.85190553 0-35.96512331-16.08688894-35.96512331-35.96512328V195.92290994c0-31.41024309-12.40085876-61.13544381-34.93830059-83.67288566-22.35314029-22.35314029-51.97302589-34.6750127-83.383269-34.67501271-65.40070735 0-118.61118624 53.07883495-118.61118621 118.32156955v317.76213247c0 19.85190553-16.08688894 35.96512331-35.96512329 35.96512328-19.85190553 0-35.96512331-16.08688894-35.9651233-35.96512328V195.92290994c0-104.89388814 85.46324317-190.22548738 190.51510402-190.22548736 50.63025776 0 98.31169131 19.79924798 134.22415703 55.73804248 36.12309602 36.12309602 56.0013303 83.88351596 56.00133034 134.51377365v317.76213246c0.02632879 19.82557674-16.0605602 35.91246574-35.91246569 35.9124657z"
          fill="#000" p-id="10758"></path>
    <path d="M519.24041649 716.78530666m-86.35842194 0a86.35842196 86.35842196 0 1 0 172.71684385 0 86.35842196 86.35842196 0 1 0-172.71684385 0Z"
          fill="#000" p-id="10759"></path>
    <path d="M646.56643124 449.12685623h-153.15455495c-19.85190553 0-35.96512331-16.08688894-35.96512331-35.9651233s16.08688894-35.96512331 35.96512331-35.96512327h153.15455495c19.85190553 0 35.96512331 16.08688894 35.9651233 35.96512327s-16.11321775 35.96512331-35.9651233 35.9651233zM646.56643124 279.35883649h-153.15455495c-19.85190553 0-35.96512331-16.08688894-35.96512331-35.96512328 0-19.85190553 16.08688894-35.96512331 35.96512331-35.96512326h153.15455495c19.85190553 0 35.96512331 16.08688894 35.9651233 35.96512326-0.02632879 19.8782343-16.11321775 35.96512331-35.9651233 35.96512328z"
          fill="#000" p-id="10760"></path>
</svg>
