<?xml version="1.0" standalone="no"?><!DOCTYPE svg PUBLIC "-//W3C//DTD SVG 1.1//EN" "http://www.w3.org/Graphics/SVG/1.1/DTD/svg11.dtd"><svg t="1676620815785" class="icon" viewBox="0 0 1072 1024" version="1.1" xmlns="http://www.w3.org/2000/svg" p-id="33262" xmlns:xlink="http://www.w3.org/1999/xlink" width="33.5" height="32"><path d="M195.047619 0m48.761905 0l0 0q48.761905 0 48.761905 48.761905l0 195.047619q0 48.761905-48.761905 48.761905l0 0q-48.761905 0-48.761905-48.761905l0-195.047619q0-48.761905 48.761905-48.761905Z" p-id="33263" fill="#5ddab4"></path><path d="M780.190476 0m48.761905 0l0 0q48.761905 0 48.761905 48.761905l0 195.047619q0 48.761905-48.761905 48.761905l0 0q-48.761905 0-48.761905-48.761905l0-195.047619q0-48.761905 48.761905-48.761905Z" p-id="33264" fill="#5ddab4"></path><path d="M975.238095 146.285714h-48.761905v97.52381a97.52381 97.52381 0 0 1-195.047619 0V146.285714H341.333333v97.52381a97.52381 97.52381 0 0 1-195.047619 0V146.285714H97.52381a97.52381 97.52381 0 0 0-97.52381 97.52381v682.666666a97.52381 97.52381 0 0 0 97.52381 97.52381h877.714285a97.52381 97.52381 0 0 0 97.52381-97.52381V243.809524a97.52381 97.52381 0 0 0-97.52381-97.52381z m-410.087619 721.676191l-56.563809-27.306667q74.605714-89.234286 142.384762-181.881905H338.407619v-57.539047h359.862857l9.752381-2.925715 42.910476 20.967619q-60.464762 87.771429-185.782857 248.685715z m-94.598095-367.177143l36.083809-34.620952a852.358095 852.358095 0 0 1 113.12762 94.598095l-38.521905 39.984762a877.714286 877.714286 0 0 0-110.689524-99.961905z m292.571429 68.266667A819.2 819.2 0 0 1 538.819048 390.095238a722.651429 722.651429 0 0 1-232.106667 186.758095 186.270476 186.270476 0 0 0-41.935238-48.761904 594.407619 594.407619 0 0 0 264.777143-225.767619l55.588571 26.331428-11.702857 17.554286a689.980952 689.980952 0 0 0 236.982857 171.641905 208.213333 208.213333 0 0 0-44.860952 51.2z" p-id="33265" fill="#5ddab4"></path></svg>