<?xml version="1.0" standalone="no"?><!DOCTYPE svg PUBLIC "-//W3C//DTD SVG 1.1//EN" "http://www.w3.org/Graphics/SVG/1.1/DTD/svg11.dtd"><svg t="1676620021396" class="icon" viewBox="0 0 1024 1024" version="1.1" xmlns="http://www.w3.org/2000/svg" p-id="2860" xmlns:xlink="http://www.w3.org/1999/xlink" width="200" height="200"><path d="M182.830545 186.181818h658.33891C890.693818 186.181818 930.909091 225.28 930.909091 273.454545v523.636364C930.909091 845.312 890.693818 884.363636 841.169455 884.363636H182.830545C133.306182 884.363636 93.090909 845.265455 93.090909 797.090909V273.454545C93.090909 225.233455 133.306182 186.181818 182.830545 186.181818z m433.896728 398.754909v58.228364h209.454545v-58.181818h-209.454545z m-59.810909-174.545454v58.228363h269.265454v-58.181818h-269.265454z m-148.200728 150.341818H326.004364a128 128 0 0 0-128.186182 127.767273v8.238545c0 28.858182 57.390545 28.858182 128.186182 28.858182h82.711272c70.795636 0 128.232727-1.117091 128.232728-28.858182v-8.238545a127.906909 127.906909 0 0 0-128.232728-127.720728z m55.109819-128.186182c0-53.061818-43.147636-96.116364-96.442182-96.116364A96.256 96.256 0 0 0 270.894545 432.546909a96.349091 96.349091 0 0 0 96.442182 96.162909 96.395636 96.395636 0 0 0 96.442182-96.162909z" fill="#3B8DFF" p-id="2861"></path></svg>